<?xml version="1.0" encoding="UTF-8" standalone="no"?>
<!-- Generator: Adobe Illustrator 23.0.1, SVG Export Plug-In . SVG Version: 6.00 Build 0)  -->

<svg
   xmlns:dc="http://purl.org/dc/elements/1.1/"
   xmlns:cc="http://creativecommons.org/ns#"
   xmlns:rdf="http://www.w3.org/1999/02/22-rdf-syntax-ns#"
   xmlns:svg="http://www.w3.org/2000/svg"
   xmlns="http://www.w3.org/2000/svg"
   xmlns:sodipodi="http://sodipodi.sourceforge.net/DTD/sodipodi-0.dtd"
   xmlns:inkscape="http://www.inkscape.org/namespaces/inkscape"
   version="1.1"
   id="Layer_1"
   x="0px"
   y="0px"
   viewBox="0 0 169.94 169.94"
   xml:space="preserve"
   sodipodi:docname="onsightIcon.svg"
   width="169.94"
   height="169.94"
   inkscape:version="0.92.3 (2405546, 2018-03-11)"><metadata
   id="metadata3785"><rdf:RDF><cc:Work
       rdf:about=""><dc:format>image/svg+xml</dc:format><dc:type
         rdf:resource="http://purl.org/dc/dcmitype/StillImage" /></cc:Work></rdf:RDF></metadata><defs
   id="defs3783"><clipPath
     clipPathUnits="userSpaceOnUse"
     id="clipPath3832"><rect
       id="rect3834"
       width="172.86794"
       height="172.86792"
       x="62.830193"
       y="57.396229"
       style="stroke-width:1.01098382" /></clipPath><clipPath
     clipPathUnits="userSpaceOnUse"
     id="clipPath3836"><rect
       id="rect3838"
       width="172.86794"
       height="172.86792"
       x="62.830193"
       y="57.396229"
       style="stroke-width:1.01098382" /></clipPath><clipPath
     clipPathUnits="userSpaceOnUse"
     id="clipPath3840"><rect
       id="rect3842"
       width="172.86794"
       height="172.86792"
       x="62.830193"
       y="57.396229"
       style="stroke-width:1.01098382" /></clipPath></defs><sodipodi:namedview
   pagecolor="#ffffff"
   bordercolor="#666666"
   borderopacity="1"
   objecttolerance="10"
   gridtolerance="10"
   guidetolerance="10"
   inkscape:pageopacity="0"
   inkscape:pageshadow="2"
   inkscape:window-width="2560"
   inkscape:window-height="1377"
   id="namedview3781"
   showgrid="false"
   inkscape:zoom="2.9444444"
   inkscape:cx="200.49"
   inkscape:cy="85.53"
   inkscape:window-x="-8"
   inkscape:window-y="-8"
   inkscape:window-maximized="1"
   inkscape:current-layer="Layer_1" />
<path
   id="XMLID_94_"
   style="fill:#00aae7"
   d="m 150.48,68.66 c 41.85,0 75.9,34.05 75.9,75.9 0,41.85 -34.05,75.9 -75.9,75.9 -41.85,0 -75.9,-34.05 -75.9,-75.9 0,-41.85 34.05,-75.9 75.9,-75.9 m 0,-9.07 c -46.93,0 -84.97,38.04 -84.97,84.97 0,46.93 38.04,84.97 84.97,84.97 46.93,0 84.97,-38.04 84.97,-84.97 C 235.44,97.63 197.4,59.59 150.48,59.59 Z"
   clip-path="url(#clipPath3840)"
   inkscape:connector-curvature="0"
   transform="translate(-65.51,-59.59)" />
<path
   id="XMLID_92_"
   style="fill:#007db6"
   d="m 150.48,68.66 c 41.85,0 75.9,34.05 75.9,75.9 0,41.85 -34.05,75.9 -75.9,75.9 -41.85,0 -75.9,-34.05 -75.9,-75.9 0,-41.85 34.05,-75.9 75.9,-75.9"
   clip-path="url(#clipPath3836)"
   inkscape:connector-curvature="0"
   transform="translate(-65.51,-59.59)" />
<g
   id="XMLID_87_"
   clip-path="url(#clipPath3832)"
   transform="translate(-65.51,-59.59)">
	<path
   id="XMLID_89_"
   style="fill:#ffffff"
   d="m 121.26,114.58 c -19.14,0 -23.06,11.98 -23.06,29.97 0,17.99 3.92,29.98 23.06,29.98 19.14,0 23.06,-11.98 23.06,-29.98 -0.01,-17.99 -3.93,-29.97 -23.06,-29.97 z m 9.46,29.97 c 0,11.91 -1.51,18.37 -9.46,18.37 -6.13,0 -9.46,-2.93 -9.46,-18.37 0,-11.91 1.51,-18.36 9.46,-18.36 6.13,0 9.46,2.93 9.46,18.36 z"
   inkscape:connector-curvature="0" />
	<polygon
   id="XMLID_88_"
   style="fill:#ffffff"
   points="168.96,115.86 155.71,115.86 155.71,173.28 169.05,173.28 168.25,138.76 186.83,173.26 200.08,173.26 200.08,115.86 186.74,115.86 187.54,150.36 " />
</g>
<rect
   id="XMLID_86_"
   x="232.53999"
   y="56.27"
   style="fill:#003963"
   width="9.0699997"
   height="57.419998" />
<polygon
   id="XMLID_85_"
   style="fill:#003963"
   points="385.22,115.86 376.29,115.86 376.29,173.28 385.22,173.28 385.22,147.73 408.07,147.73 408.07,173.28 417,173.28 417,115.86 408.07,115.86 408.07,139.16 385.22,139.16 "
   transform="translate(-65.51,-59.59)" />
<polygon
   id="XMLID_84_"
   style="fill:#003963"
   points="442.23,124.43 442.23,173.28 451.16,173.28 451.16,124.43 466.05,124.43 466.05,115.86 427.35,115.86 427.35,124.43 "
   transform="translate(-65.51,-59.59)" />
<path
   id="XMLID_20_"
   style="fill:#003963"
   d="m 201.66,79.88 v 0 c -8.68,-1.1 -11.18,-1.68 -11.18,-7.49 0,-7.51 5.32,-8.55 11.06,-8.55 4.91,0 8.41,0.65 12.62,2.36 l 6.2,-6.2 c 0,0 -0.27,-0.31 -3.88,-2.02 -3.6,-1.71 -8.87,-2.7 -14.87,-2.7 -18.17,0 -20.14,11.92 -20.14,17.05 0,11.15 7.11,14.21 19.38,15.74 8.83,1.13 10.38,2.38 10.38,8.35 0,8.69 -7.18,9.7 -12.57,9.7 -6.18,0 -8.87,-1.03 -11.69,-2.07 l -6.38,6.65 c 0,0 2.1,1.1 4.71,1.92 3.77,1.18 9.35,2.07 13.28,2.07 19.8,0 21.93,-12.78 21.93,-18.27 0.02,-13.01 -9.72,-15.36 -18.85,-16.54 z"
   inkscape:connector-curvature="0" />
<path
   id="XMLID_15_"
   style="fill:#003963"
   d="m 276.52,90.16 h 11.29 v 14.98 c -2.11,0.61 -5.57,0.96 -9.63,0.96 -11.58,0 -14.01,-11.49 -14.01,-21.13 0,-9.64 2.43,-21.13 14.01,-21.13 4.82,0 8.11,0.8 12.45,2.48 L 296.92,60 c 0,0 -0.88,-0.53 -2.72,-1.49 -4.1,-2.14 -9.59,-3.24 -16.02,-3.24 -15.2,0 -23.23,10.27 -23.23,29.7 0,19.43 8.03,29.7 23.23,29.7 7.04,0 17.62,-3.32 18.07,-3.46 l 0.49,-0.15 V 81.59 h -20.22 z"
   inkscape:connector-curvature="0" />
<g
   id="g3778"
   transform="translate(-65.51,-59.59)">
	<path
   style="fill:#00aae7"
   d="m 268.4,219.73 c -0.24,0 -0.4,-0.16 -0.48,-0.4 l -5.2,-18.6 h -0.08 l -5.24,18.6 c -0.08,0.24 -0.24,0.4 -0.48,0.4 h -3 c -0.24,0 -0.4,-0.16 -0.48,-0.4 l -6.68,-26.4 c -0.04,-0.24 0.04,-0.4 0.32,-0.4 h 3.76 c 0.28,0 0.44,0.16 0.48,0.4 l 4.32,18.32 h 0.08 l 5.08,-18.32 c 0.08,-0.24 0.24,-0.4 0.48,-0.4 h 2.8 c 0.28,0 0.4,0.16 0.48,0.4 l 5.2,18.32 h 0.08 l 4.2,-18.32 c 0.04,-0.28 0.24,-0.4 0.48,-0.4 h 3.72 c 0.28,0 0.36,0.16 0.32,0.4 l -6.64,26.4 c -0.04,0.24 -0.24,0.4 -0.48,0.4 z"
   id="path3760"
   inkscape:connector-curvature="0" />
	<path
   style="fill:#00aae7"
   d="m 281.88,213.61 c -0.56,-1.68 -0.72,-3.2 -0.72,-7.48 0,-4.28 0.16,-5.8 0.72,-7.48 1.4,-4.32 4.92,-6.56 9.6,-6.56 4.72,0 8.24,2.24 9.64,6.56 0.56,1.68 0.72,3.2 0.72,7.48 0,4.28 -0.16,5.8 -0.72,7.48 -1.4,4.32 -4.92,6.56 -9.64,6.56 -4.68,0 -8.2,-2.24 -9.6,-6.56 z m 14.68,-1.24 c 0.32,-1 0.48,-2.4 0.48,-6.24 0,-3.88 -0.16,-5.24 -0.48,-6.24 -0.76,-2.2 -2.36,-3.56 -5.08,-3.56 -2.68,0 -4.28,1.36 -5.04,3.56 -0.32,1 -0.48,2.36 -0.48,6.24 0,3.84 0.16,5.24 0.48,6.24 0.76,2.2 2.36,3.56 5.04,3.56 2.72,0 4.32,-1.36 5.08,-3.56 z"
   id="path3762"
   inkscape:connector-curvature="0" />
	<path
   style="fill:#00aae7"
   d="m 322.48,219.73 c -0.32,0 -0.48,-0.12 -0.6,-0.4 l -5.2,-10.6 H 312 c -0.16,0 -0.24,0.08 -0.24,0.24 v 10.36 c 0,0.24 -0.16,0.4 -0.4,0.4 h -3.92 c -0.24,0 -0.4,-0.16 -0.4,-0.4 v -26.4 c 0,-0.24 0.16,-0.4 0.4,-0.4 h 10.52 c 5,0 8.68,3.32 8.68,8.12 0,3.56 -2.04,6.32 -5.16,7.48 l 5.72,11.08 c 0.16,0.28 0,0.52 -0.28,0.52 z m -0.52,-19.08 c 0,-2.36 -1.68,-3.88 -4.16,-3.88 H 312 c -0.16,0 -0.24,0.08 -0.24,0.24 v 7.24 c 0,0.16 0.08,0.24 0.24,0.24 h 5.8 c 2.48,0 4.16,-1.52 4.16,-3.84 z"
   id="path3764"
   inkscape:connector-curvature="0" />
	<path
   style="fill:#00aae7"
   d="m 331.8,192.93 c 0,-0.24 0.16,-0.4 0.4,-0.4 h 3.92 c 0.24,0 0.4,0.16 0.4,0.4 v 12.8 l 10.28,-12.88 c 0.2,-0.24 0.36,-0.32 0.64,-0.32 H 352 c 0.24,0 0.36,0.28 0.16,0.52 l -8.44,10.16 9.4,16.04 c 0.16,0.28 0.04,0.48 -0.28,0.48 h -4.44 c -0.32,0 -0.44,-0.08 -0.6,-0.32 l -7.12,-12.56 -4.16,5.04 v 7.44 c 0,0.24 -0.16,0.4 -0.4,0.4 h -3.92 c -0.24,0 -0.4,-0.16 -0.4,-0.4 z"
   id="path3766"
   inkscape:connector-curvature="0" />
	<path
   style="fill:#00aae7"
   d="m 355.32,216.57 c -0.16,-0.16 -0.24,-0.4 -0.08,-0.6 l 2.48,-2.88 c 0.16,-0.2 0.4,-0.2 0.56,-0.04 1.76,1.4 4.36,2.88 7.4,2.88 3.24,0 5.12,-1.64 5.12,-3.92 0,-1.96 -1.2,-3.24 -4.96,-3.76 l -1.44,-0.2 c -5.24,-0.72 -8.2,-3.24 -8.2,-7.76 0,-4.92 3.6,-8.2 9.2,-8.2 3.4,0 6.64,1.08 8.8,2.72 0.2,0.16 0.24,0.32 0.08,0.56 l -1.92,2.96 c -0.16,0.2 -0.36,0.24 -0.56,0.12 -2.2,-1.44 -4.24,-2.12 -6.52,-2.12 -2.76,0 -4.28,1.52 -4.28,3.64 0,1.88 1.32,3.16 5,3.68 l 1.44,0.2 c 5.24,0.72 8.12,3.2 8.12,7.88 0,4.84 -3.48,8.44 -10.24,8.44 -4,0 -7.88,-1.6 -10,-3.6 z"
   id="path3768"
   inkscape:connector-curvature="0" />
	<path
   style="fill:#00aae7"
   d="m 380.64,219.73 c -0.24,0 -0.4,-0.16 -0.4,-0.4 v -26.4 c 0,-0.24 0.16,-0.4 0.4,-0.4 h 10.2 c 5.28,0 8.96,3.4 8.96,8.44 0,5.08 -3.68,8.48 -8.96,8.48 h -5.64 c -0.16,0 -0.24,0.08 -0.24,0.24 v 9.64 c 0,0.24 -0.16,0.4 -0.4,0.4 z m 14.44,-18.76 c 0,-2.48 -1.72,-4.2 -4.52,-4.2 h -5.36 c -0.16,0 -0.24,0.08 -0.24,0.24 v 7.92 c 0,0.16 0.08,0.24 0.24,0.24 h 5.36 c 2.8,0 4.52,-1.68 4.52,-4.2 z"
   id="path3770"
   inkscape:connector-curvature="0" />
	<path
   style="fill:#00aae7"
   d="m 408.52,192.93 c 0.08,-0.24 0.24,-0.4 0.52,-0.4 h 3.68 c 0.28,0 0.44,0.16 0.52,0.4 l 9.2,26.4 c 0.08,0.24 0,0.4 -0.28,0.4 h -3.92 c -0.28,0 -0.44,-0.12 -0.52,-0.4 l -1.8,-5.28 h -10.24 l -1.8,5.28 c -0.08,0.28 -0.24,0.4 -0.52,0.4 h -3.88 c -0.28,0 -0.36,-0.16 -0.28,-0.4 z m 5.96,16.92 -3.6,-10.56 h -0.12 l -3.64,10.56 z"
   id="path3772"
   inkscape:connector-curvature="0" />
	<path
   style="fill:#00aae7"
   d="m 424.4,206.13 c 0,-4.32 0.16,-5.68 0.72,-7.36 1.4,-4.44 4.84,-6.68 9.44,-6.68 4.36,0 7.64,2.24 9.2,5.84 0.08,0.2 0,0.4 -0.2,0.48 l -3.4,1.64 c -0.24,0.12 -0.44,0 -0.52,-0.2 -0.88,-1.92 -2.4,-3.52 -5.08,-3.52 -2.6,0 -4.12,1.4 -4.88,3.6 -0.36,1.12 -0.48,2.2 -0.48,6.2 0,4 0.12,5.08 0.48,6.2 0.76,2.2 2.28,3.6 4.88,3.6 2.68,0 4.2,-1.6 5.08,-3.52 0.08,-0.2 0.28,-0.32 0.52,-0.2 l 3.4,1.64 c 0.2,0.08 0.28,0.28 0.2,0.48 -1.56,3.6 -4.84,5.84 -9.2,5.84 -4.6,0 -8.04,-2.24 -9.44,-6.68 -0.56,-1.68 -0.72,-3.04 -0.72,-7.36 z"
   id="path3774"
   inkscape:connector-curvature="0" />
	<path
   style="fill:#00aae7"
   d="m 448.2,192.93 c 0,-0.24 0.16,-0.4 0.4,-0.4 h 17.04 c 0.24,0 0.4,0.16 0.4,0.4 v 3.44 c 0,0.24 -0.16,0.4 -0.4,0.4 h -12.48 c -0.16,0 -0.24,0.08 -0.24,0.24 v 6.64 c 0,0.16 0.08,0.24 0.24,0.24 h 10.52 c 0.24,0 0.4,0.16 0.4,0.4 v 3.44 c 0,0.24 -0.16,0.4 -0.4,0.4 h -10.52 c -0.16,0 -0.24,0.08 -0.24,0.24 v 6.88 c 0,0.16 0.08,0.24 0.24,0.24 h 12.48 c 0.24,0 0.4,0.16 0.4,0.4 v 3.44 c 0,0.24 -0.16,0.4 -0.4,0.4 H 448.6 c -0.24,0 -0.4,-0.16 -0.4,-0.4 z"
   id="path3776"
   inkscape:connector-curvature="0" />
</g>
</svg>